<?xml version="1.0" encoding="UTF-8" standalone="no"?>
<!DOCTYPE svg PUBLIC "-//W3C//DTD SVG 1.1//EN"
 "http://www.w3.org/Graphics/SVG/1.1/DTD/svg11.dtd">
<!-- Generated by graphviz version 2.38.0 (20140413.2041)
 -->
<!-- Title: controllers_diagram Pages: 1 -->
<svg width="576pt" height="524pt"
 viewBox="0.00 0.00 576.00 523.50" xmlns="http://www.w3.org/2000/svg" xmlns:xlink="http://www.w3.org/1999/xlink">
<g id="graph0" class="graph" transform="scale(1 1) rotate(0) translate(229 324.5)">
<title>controllers_diagram</title>
<polygon fill="none" stroke="none" points="-229,199 -229,-324.5 347,-324.5 347,199 -229,199"/>
<!-- _diagram_info -->
<g id="node1" class="node"><title>_diagram_info</title>
<text text-anchor="start" x="-112" y="-18.6" font-family="Times,serif" font-size="13.00">Controllers diagram</text>
<text text-anchor="start" x="-112" y="-4.6" font-family="Times,serif" font-size="13.00">Date: Mar 03 2017 &#45; 19:52</text>
<text text-anchor="start" x="-112" y="9.4" font-family="Times,serif" font-size="13.00">Migration version: 20170303102803</text>
<text text-anchor="start" x="-112" y="23.4" font-family="Times,serif" font-size="13.00">Generated by RailRoady 1.5.2</text>
<text text-anchor="start" x="-112" y="37.4" font-family="Times,serif" font-size="13.00">http://railroady.prestonlee.com</text>
</g>
<!-- StudentsController -->
<g id="node2" class="node"><title>StudentsController</title>
<path fill="none" stroke="black" d="M-77.5,-90C-77.5,-90 17.5,-90 17.5,-90 23.5,-90 29.5,-96 29.5,-102 29.5,-102 29.5,-246 29.5,-246 29.5,-252 23.5,-258 17.5,-258 17.5,-258 -77.5,-258 -77.5,-258 -83.5,-258 -89.5,-252 -89.5,-246 -89.5,-246 -89.5,-102 -89.5,-102 -89.5,-96 -83.5,-90 -77.5,-90"/>
<text text-anchor="middle" x="-30" y="-242.8" font-family="Times,serif" font-size="14.00">StudentsController</text>
<polyline fill="none" stroke="black" points="-89.5,-235 29.5,-235 "/>
<text text-anchor="start" x="-81.5" y="-219.8" font-family="Times,serif" font-size="14.00">create</text>
<text text-anchor="start" x="-81.5" y="-204.8" font-family="Times,serif" font-size="14.00">index</text>
<text text-anchor="start" x="-81.5" y="-189.8" font-family="Times,serif" font-size="14.00">new</text>
<text text-anchor="start" x="-81.5" y="-174.8" font-family="Times,serif" font-size="14.00">show</text>
<polyline fill="none" stroke="black" points="-89.5,-167 29.5,-167 "/>
<polyline fill="none" stroke="black" points="-89.5,-143 29.5,-143 "/>
<text text-anchor="start" x="-81.5" y="-127.8" font-family="Times,serif" font-size="14.00">_layout</text>
<text text-anchor="start" x="-81.5" y="-112.8" font-family="Times,serif" font-size="14.00">set_subject</text>
<text text-anchor="start" x="-81.5" y="-97.8" font-family="Times,serif" font-size="14.00">students_param</text>
</g>
<!-- MeetingsController -->
<g id="node3" class="node"><title>MeetingsController</title>
<path fill="none" stroke="black" d="M132.5,119.5C132.5,119.5 231.5,119.5 231.5,119.5 237.5,119.5 243.5,113.5 243.5,107.5 243.5,107.5 243.5,-21.5 243.5,-21.5 243.5,-27.5 237.5,-33.5 231.5,-33.5 231.5,-33.5 132.5,-33.5 132.5,-33.5 126.5,-33.5 120.5,-27.5 120.5,-21.5 120.5,-21.5 120.5,107.5 120.5,107.5 120.5,113.5 126.5,119.5 132.5,119.5"/>
<text text-anchor="middle" x="182" y="-18.3" font-family="Times,serif" font-size="14.00">MeetingsController</text>
<polyline fill="none" stroke="black" points="120.5,-10.5 243.5,-10.5 "/>
<text text-anchor="start" x="128.5" y="4.7" font-family="Times,serif" font-size="14.00">index</text>
<text text-anchor="start" x="128.5" y="19.7" font-family="Times,serif" font-size="14.00">new</text>
<text text-anchor="start" x="128.5" y="34.7" font-family="Times,serif" font-size="14.00">show</text>
<polyline fill="none" stroke="black" points="120.5,42.5 243.5,42.5 "/>
<polyline fill="none" stroke="black" points="120.5,66.5 243.5,66.5 "/>
<text text-anchor="start" x="128.5" y="81.7" font-family="Times,serif" font-size="14.00">_layout</text>
<text text-anchor="start" x="128.5" y="96.7" font-family="Times,serif" font-size="14.00">meetings_param</text>
<text text-anchor="start" x="128.5" y="111.7" font-family="Times,serif" font-size="14.00">set_subject</text>
</g>
<!-- UsersController -->
<g id="node4" class="node"><title>UsersController</title>
<path fill="none" stroke="black" d="M-212.5,-226C-212.5,-226 -133.5,-226 -133.5,-226 -127.5,-226 -121.5,-232 -121.5,-238 -121.5,-238 -121.5,-308 -121.5,-308 -121.5,-314 -127.5,-320 -133.5,-320 -133.5,-320 -212.5,-320 -212.5,-320 -218.5,-320 -224.5,-314 -224.5,-308 -224.5,-308 -224.5,-238 -224.5,-238 -224.5,-232 -218.5,-226 -212.5,-226"/>
<text text-anchor="middle" x="-173" y="-304.8" font-family="Times,serif" font-size="14.00">UsersController</text>
<polyline fill="none" stroke="black" points="-224.5,-297 -121.5,-297 "/>
<polyline fill="none" stroke="black" points="-224.5,-273 -121.5,-273 "/>
<polyline fill="none" stroke="black" points="-224.5,-249 -121.5,-249 "/>
<text text-anchor="start" x="-216.5" y="-233.8" font-family="Times,serif" font-size="14.00">_layout</text>
</g>
<!-- PagesController -->
<g id="node5" class="node"><title>PagesController</title>
<path fill="none" stroke="black" d="M-213,-105.5C-213,-105.5 -133,-105.5 -133,-105.5 -127,-105.5 -121,-111.5 -121,-117.5 -121,-117.5 -121,-186.5 -121,-186.5 -121,-192.5 -127,-198.5 -133,-198.5 -133,-198.5 -213,-198.5 -213,-198.5 -219,-198.5 -225,-192.5 -225,-186.5 -225,-186.5 -225,-117.5 -225,-117.5 -225,-111.5 -219,-105.5 -213,-105.5"/>
<text text-anchor="middle" x="-173" y="-183.3" font-family="Times,serif" font-size="14.00">PagesController</text>
<polyline fill="none" stroke="black" points="-225,-175.5 -121,-175.5 "/>
<text text-anchor="start" x="-217" y="-160.3" font-family="Times,serif" font-size="14.00">dashboard</text>
<polyline fill="none" stroke="black" points="-225,-152.5 -121,-152.5 "/>
<polyline fill="none" stroke="black" points="-225,-128.5 -121,-128.5 "/>
<text text-anchor="start" x="-217" y="-113.3" font-family="Times,serif" font-size="14.00">_layout</text>
</g>
<!-- SessionsController -->
<g id="node6" class="node"><title>SessionsController</title>
<path fill="none" stroke="black" d="M-182.5,194.5C-182.5,194.5 -87.5,194.5 -87.5,194.5 -81.5,194.5 -75.5,188.5 -75.5,182.5 -75.5,182.5 -75.5,83.5 -75.5,83.5 -75.5,77.5 -81.5,71.5 -87.5,71.5 -87.5,71.5 -182.5,71.5 -182.5,71.5 -188.5,71.5 -194.5,77.5 -194.5,83.5 -194.5,83.5 -194.5,182.5 -194.5,182.5 -194.5,188.5 -188.5,194.5 -182.5,194.5"/>
<text text-anchor="middle" x="-135" y="86.7" font-family="Times,serif" font-size="14.00">SessionsController</text>
<polyline fill="none" stroke="black" points="-194.5,94.5 -75.5,94.5 "/>
<text text-anchor="start" x="-186.5" y="109.7" font-family="Times,serif" font-size="14.00">create</text>
<text text-anchor="start" x="-186.5" y="124.7" font-family="Times,serif" font-size="14.00">destroy</text>
<text text-anchor="start" x="-186.5" y="139.7" font-family="Times,serif" font-size="14.00">new</text>
<polyline fill="none" stroke="black" points="-194.5,147.5 -75.5,147.5 "/>
<polyline fill="none" stroke="black" points="-194.5,171.5 -75.5,171.5 "/>
<text text-anchor="start" x="-186.5" y="186.7" font-family="Times,serif" font-size="14.00">_layout</text>
</g>
<!-- AttendancesController -->
<g id="node7" class="node"><title>AttendancesController</title>
<path fill="none" stroke="black" d="M72.5,-60.5C72.5,-60.5 187.5,-60.5 187.5,-60.5 193.5,-60.5 199.5,-66.5 199.5,-72.5 199.5,-72.5 199.5,-201.5 199.5,-201.5 199.5,-207.5 193.5,-213.5 187.5,-213.5 187.5,-213.5 72.5,-213.5 72.5,-213.5 66.5,-213.5 60.5,-207.5 60.5,-201.5 60.5,-201.5 60.5,-72.5 60.5,-72.5 60.5,-66.5 66.5,-60.5 72.5,-60.5"/>
<text text-anchor="middle" x="130" y="-198.3" font-family="Times,serif" font-size="14.00">AttendancesController</text>
<polyline fill="none" stroke="black" points="60.5,-190.5 199.5,-190.5 "/>
<text text-anchor="start" x="68.5" y="-175.3" font-family="Times,serif" font-size="14.00">index</text>
<text text-anchor="start" x="68.5" y="-160.3" font-family="Times,serif" font-size="14.00">new</text>
<text text-anchor="start" x="68.5" y="-145.3" font-family="Times,serif" font-size="14.00">toggle</text>
<polyline fill="none" stroke="black" points="60.5,-137.5 199.5,-137.5 "/>
<polyline fill="none" stroke="black" points="60.5,-113.5 199.5,-113.5 "/>
<text text-anchor="start" x="68.5" y="-98.3" font-family="Times,serif" font-size="14.00">_layout</text>
<text text-anchor="start" x="68.5" y="-83.3" font-family="Times,serif" font-size="14.00">attendances_param</text>
<text text-anchor="start" x="68.5" y="-68.3" font-family="Times,serif" font-size="14.00">set_meeting</text>
</g>
<!-- ApplicationController -->
<g id="node8" class="node"><title>ApplicationController</title>
<path fill="none" stroke="black" d="M-33,164.5C-33,164.5 79,164.5 79,164.5 85,164.5 91,158.5 91,152.5 91,152.5 91,83.5 91,83.5 91,77.5 85,71.5 79,71.5 79,71.5 -33,71.5 -33,71.5 -39,71.5 -45,77.5 -45,83.5 -45,83.5 -45,152.5 -45,152.5 -45,158.5 -39,164.5 -33,164.5"/>
<text text-anchor="middle" x="23" y="86.7" font-family="Times,serif" font-size="14.00">ApplicationController</text>
<polyline fill="none" stroke="black" points="-45,94.5 91,94.5 "/>
<text text-anchor="start" x="-37" y="109.7" font-family="Times,serif" font-size="14.00">current_user</text>
<polyline fill="none" stroke="black" points="-45,117.5 91,117.5 "/>
<polyline fill="none" stroke="black" points="-45,141.5 91,141.5 "/>
<text text-anchor="start" x="-37" y="156.7" font-family="Times,serif" font-size="14.00">_layout</text>
</g>
<!-- SubjectsController -->
<g id="node9" class="node"><title>SubjectsController</title>
<path fill="none" stroke="black" d="M237,-60C237,-60 331,-60 331,-60 337,-60 343,-66 343,-72 343,-72 343,-216 343,-216 343,-222 337,-228 331,-228 331,-228 237,-228 237,-228 231,-228 225,-222 225,-216 225,-216 225,-72 225,-72 225,-66 231,-60 237,-60"/>
<text text-anchor="middle" x="284" y="-212.8" font-family="Times,serif" font-size="14.00">SubjectsController</text>
<polyline fill="none" stroke="black" points="225,-205 343,-205 "/>
<text text-anchor="start" x="233" y="-189.8" font-family="Times,serif" font-size="14.00">create</text>
<text text-anchor="start" x="233" y="-174.8" font-family="Times,serif" font-size="14.00">index</text>
<text text-anchor="start" x="233" y="-159.8" font-family="Times,serif" font-size="14.00">new</text>
<text text-anchor="start" x="233" y="-144.8" font-family="Times,serif" font-size="14.00">show</text>
<polyline fill="none" stroke="black" points="225,-137 343,-137 "/>
<polyline fill="none" stroke="black" points="225,-113 343,-113 "/>
<text text-anchor="start" x="233" y="-97.8" font-family="Times,serif" font-size="14.00">_layout</text>
<text text-anchor="start" x="233" y="-82.8" font-family="Times,serif" font-size="14.00">set_subject</text>
<text text-anchor="start" x="233" y="-67.8" font-family="Times,serif" font-size="14.00">subjects_param</text>
</g>
</g>
</svg>
