<?xml version="1.0" encoding="UTF-8" standalone="no"?>
<!DOCTYPE svg PUBLIC "-//W3C//DTD SVG 1.1//EN"
 "http://www.w3.org/Graphics/SVG/1.1/DTD/svg11.dtd">
<!-- Generated by graphviz version 2.38.0 (20140413.2041)
 -->
<!-- Title: models_diagram Pages: 1 -->
<svg width="568pt" height="634pt"
 viewBox="0.00 0.00 568.34 634.00" xmlns="http://www.w3.org/2000/svg" xmlns:xlink="http://www.w3.org/1999/xlink">
<g id="graph0" class="graph" transform="scale(1 1) rotate(0) translate(4 630)">
<title>models_diagram</title>
<polygon fill="none" stroke="none" points="-4,4 -4,-630 564.343,-630 564.343,4 -4,4"/>
<!-- _diagram_info -->
<g id="node1" class="node"><title>_diagram_info</title>
<text text-anchor="start" x="8" y="-589.6" font-family="Times,serif" font-size="13.00">Models diagram</text>
<text text-anchor="start" x="8" y="-575.6" font-family="Times,serif" font-size="13.00">Date: Mar 03 2017 &#45; 19:52</text>
<text text-anchor="start" x="8" y="-561.6" font-family="Times,serif" font-size="13.00">Migration version: 20170303102803</text>
<text text-anchor="start" x="8" y="-547.6" font-family="Times,serif" font-size="13.00">Generated by RailRoady 1.5.2</text>
<text text-anchor="start" x="8" y="-533.6" font-family="Times,serif" font-size="13.00">http://railroady.prestonlee.com</text>
</g>
<!-- Subject -->
<g id="node2" class="node"><title>Subject</title>
<path fill="none" stroke="black" d="M253.5,-331.5C253.5,-331.5 366.5,-331.5 366.5,-331.5 372.5,-331.5 378.5,-337.5 378.5,-343.5 378.5,-343.5 378.5,-455.5 378.5,-455.5 378.5,-461.5 372.5,-467.5 366.5,-467.5 366.5,-467.5 253.5,-467.5 253.5,-467.5 247.5,-467.5 241.5,-461.5 241.5,-455.5 241.5,-455.5 241.5,-343.5 241.5,-343.5 241.5,-337.5 247.5,-331.5 253.5,-331.5"/>
<text text-anchor="middle" x="310" y="-452.3" font-family="Times,serif" font-size="14.00">Subject</text>
<polyline fill="none" stroke="black" points="241.5,-444.5 378.5,-444.5 "/>
<text text-anchor="start" x="249.5" y="-429.3" font-family="Times,serif" font-size="14.00">id :INTEGER</text>
<text text-anchor="start" x="249.5" y="-414.3" font-family="Times,serif" font-size="14.00">user_id :integer</text>
<text text-anchor="start" x="249.5" y="-399.3" font-family="Times,serif" font-size="14.00">course_code :varchar</text>
<text text-anchor="start" x="249.5" y="-384.3" font-family="Times,serif" font-size="14.00">course_name :varchar</text>
<text text-anchor="start" x="249.5" y="-369.3" font-family="Times,serif" font-size="14.00">section :varchar</text>
<text text-anchor="start" x="249.5" y="-354.3" font-family="Times,serif" font-size="14.00">created_at :datetime</text>
<text text-anchor="start" x="249.5" y="-339.3" font-family="Times,serif" font-size="14.00">updated_at :datetime</text>
</g>
<!-- Student -->
<g id="node5" class="node"><title>Student</title>
<path fill="none" stroke="black" d="M179.5,-173.5C179.5,-173.5 286.5,-173.5 286.5,-173.5 292.5,-173.5 298.5,-179.5 298.5,-185.5 298.5,-185.5 298.5,-282.5 298.5,-282.5 298.5,-288.5 292.5,-294.5 286.5,-294.5 286.5,-294.5 179.5,-294.5 179.5,-294.5 173.5,-294.5 167.5,-288.5 167.5,-282.5 167.5,-282.5 167.5,-185.5 167.5,-185.5 167.5,-179.5 173.5,-173.5 179.5,-173.5"/>
<text text-anchor="middle" x="233" y="-279.3" font-family="Times,serif" font-size="14.00">Student</text>
<polyline fill="none" stroke="black" points="167.5,-271.5 298.5,-271.5 "/>
<text text-anchor="start" x="175.5" y="-256.3" font-family="Times,serif" font-size="14.00">id :INTEGER</text>
<text text-anchor="start" x="175.5" y="-241.3" font-family="Times,serif" font-size="14.00">subject_id :integer</text>
<text text-anchor="start" x="175.5" y="-226.3" font-family="Times,serif" font-size="14.00">id_number :integer</text>
<text text-anchor="start" x="175.5" y="-211.3" font-family="Times,serif" font-size="14.00">name :varchar</text>
<text text-anchor="start" x="175.5" y="-196.3" font-family="Times,serif" font-size="14.00">created_at :datetime</text>
<text text-anchor="start" x="175.5" y="-181.3" font-family="Times,serif" font-size="14.00">updated_at :datetime</text>
</g>
<!-- Subject&#45;&gt;Student -->
<g id="edge1" class="edge"><title>Subject&#45;&gt;Student</title>
<path fill="none" stroke="#ec387e" d="M274.757,-323.667C271.686,-317.146 268.587,-310.565 265.539,-304.093"/>
<ellipse fill="none" stroke="#ec387e" cx="276.532" cy="-327.436" rx="4.00002" ry="4.00002"/>
<polygon fill="#ec387e" stroke="#ec387e" points="265.38,-303.756 265.191,-292.791 263.25,-299.232 261.12,-294.709 261.12,-294.709 261.12,-294.709 263.25,-299.232 257.049,-296.626 265.38,-303.756 265.38,-303.756"/>
</g>
<!-- Meeting -->
<g id="node7" class="node"><title>Meeting</title>
<path fill="none" stroke="black" d="M328.5,-173.5C328.5,-173.5 443.5,-173.5 443.5,-173.5 449.5,-173.5 455.5,-179.5 455.5,-185.5 455.5,-185.5 455.5,-282.5 455.5,-282.5 455.5,-288.5 449.5,-294.5 443.5,-294.5 443.5,-294.5 328.5,-294.5 328.5,-294.5 322.5,-294.5 316.5,-288.5 316.5,-282.5 316.5,-282.5 316.5,-185.5 316.5,-185.5 316.5,-179.5 322.5,-173.5 328.5,-173.5"/>
<text text-anchor="middle" x="386" y="-279.3" font-family="Times,serif" font-size="14.00">Meeting</text>
<polyline fill="none" stroke="black" points="316.5,-271.5 455.5,-271.5 "/>
<text text-anchor="start" x="324.5" y="-256.3" font-family="Times,serif" font-size="14.00">id :INTEGER</text>
<text text-anchor="start" x="324.5" y="-241.3" font-family="Times,serif" font-size="14.00">subject_id :integer</text>
<text text-anchor="start" x="324.5" y="-226.3" font-family="Times,serif" font-size="14.00">meeting_type :varchar</text>
<text text-anchor="start" x="324.5" y="-211.3" font-family="Times,serif" font-size="14.00">remarks :text</text>
<text text-anchor="start" x="324.5" y="-196.3" font-family="Times,serif" font-size="14.00">created_at :datetime</text>
<text text-anchor="start" x="324.5" y="-181.3" font-family="Times,serif" font-size="14.00">updated_at :datetime</text>
</g>
<!-- Subject&#45;&gt;Meeting -->
<g id="edge2" class="edge"><title>Subject&#45;&gt;Meeting</title>
<path fill="none" stroke="#0c8e1d" d="M344.785,-323.667C347.816,-317.146 350.875,-310.565 353.883,-304.093"/>
<ellipse fill="none" stroke="#0c8e1d" cx="343.037" cy="-327.427" rx="4.00002" ry="4.00002"/>
<polygon fill="#0c8e1d" stroke="#0c8e1d" points="354.03,-303.777 362.326,-296.605 356.138,-299.243 358.246,-294.709 358.246,-294.709 358.246,-294.709 356.138,-299.243 354.165,-292.812 354.03,-303.777 354.03,-303.777"/>
</g>
<!-- User -->
<g id="node3" class="node"><title>User</title>
<path fill="none" stroke="black" d="M244.5,-504.5C244.5,-504.5 375.5,-504.5 375.5,-504.5 381.5,-504.5 387.5,-510.5 387.5,-516.5 387.5,-516.5 387.5,-613.5 387.5,-613.5 387.5,-619.5 381.5,-625.5 375.5,-625.5 375.5,-625.5 244.5,-625.5 244.5,-625.5 238.5,-625.5 232.5,-619.5 232.5,-613.5 232.5,-613.5 232.5,-516.5 232.5,-516.5 232.5,-510.5 238.5,-504.5 244.5,-504.5"/>
<text text-anchor="middle" x="310" y="-610.3" font-family="Times,serif" font-size="14.00">User</text>
<polyline fill="none" stroke="black" points="232.5,-602.5 387.5,-602.5 "/>
<text text-anchor="start" x="240.5" y="-587.3" font-family="Times,serif" font-size="14.00">id :INTEGER</text>
<text text-anchor="start" x="240.5" y="-572.3" font-family="Times,serif" font-size="14.00">username :varchar</text>
<text text-anchor="start" x="240.5" y="-557.3" font-family="Times,serif" font-size="14.00">email :varchar</text>
<text text-anchor="start" x="240.5" y="-542.3" font-family="Times,serif" font-size="14.00">password_digest :varchar</text>
<text text-anchor="start" x="240.5" y="-527.3" font-family="Times,serif" font-size="14.00">created_at :datetime</text>
<text text-anchor="start" x="240.5" y="-512.3" font-family="Times,serif" font-size="14.00">updated_at :datetime</text>
</g>
<!-- User&#45;&gt;Subject -->
<g id="edge3" class="edge"><title>User&#45;&gt;Subject</title>
<path fill="none" stroke="#16f033" d="M310,-495.905C310,-489.915 310,-483.824 310,-477.766"/>
<ellipse fill="none" stroke="#16f033" cx="310" cy="-500.047" rx="4" ry="4"/>
<polygon fill="#16f033" stroke="#16f033" points="310,-477.625 314.5,-467.625 310,-472.625 310,-467.625 310,-467.625 310,-467.625 310,-472.625 305.5,-467.625 310,-477.625 310,-477.625"/>
</g>
<!-- User&#45;&gt;Student -->
<g id="edge5" class="edge"><title>User&#45;&gt;Student</title>
<path fill="none" stroke="#5a8e92" d="M246.751,-495.877C241.181,-486.996 236.382,-477.623 233,-468 214.567,-415.558 215.923,-352.28 221.135,-304.91"/>
<polygon fill="#5a8e92" stroke="#5a8e92" points="246.77,-495.905 248.558,-506.724 249.537,-500.069 252.305,-504.233 252.305,-504.233 252.305,-504.233 249.537,-500.069 256.053,-501.742 246.77,-495.905 246.77,-495.905"/>
<polygon fill="#5a8e92" stroke="#5a8e92" points="221.162,-304.68 226.807,-295.279 221.75,-299.715 222.338,-294.75 222.338,-294.75 222.338,-294.75 221.75,-299.715 217.869,-294.221 221.162,-304.68 221.162,-304.68"/>
</g>
<!-- User&#45;&gt;Meeting -->
<g id="edge4" class="edge"><title>User&#45;&gt;Meeting</title>
<path fill="none" stroke="#e417ca" d="M374.063,-495.953C379.706,-487.058 384.57,-477.662 388,-468 406.599,-415.615 404.654,-352.332 398.862,-304.946"/>
<polygon fill="#e417ca" stroke="#e417ca" points="374.017,-496.022 364.701,-501.808 371.226,-500.171 368.435,-504.319 368.435,-504.319 368.435,-504.319 371.226,-500.171 372.169,-506.831 374.017,-496.022 374.017,-496.022"/>
<polygon fill="#e417ca" stroke="#e417ca" points="398.83,-304.698 401.993,-294.198 398.181,-299.74 397.531,-294.782 397.531,-294.782 397.531,-294.782 398.181,-299.74 393.07,-295.367 398.83,-304.698 398.83,-304.698"/>
</g>
<!-- ApplicationRecord -->
<g id="node4" class="node"><title>ApplicationRecord</title>
<ellipse fill="none" stroke="black" cx="483" cy="-565" rx="77.1866" ry="18"/>
<text text-anchor="middle" x="483" y="-561.3" font-family="Times,serif" font-size="14.00">ApplicationRecord</text>
</g>
<!-- Attendance -->
<g id="node6" class="node"><title>Attendance</title>
<path fill="none" stroke="black" d="M255.5,-0.5C255.5,-0.5 362.5,-0.5 362.5,-0.5 368.5,-0.5 374.5,-6.5 374.5,-12.5 374.5,-12.5 374.5,-124.5 374.5,-124.5 374.5,-130.5 368.5,-136.5 362.5,-136.5 362.5,-136.5 255.5,-136.5 255.5,-136.5 249.5,-136.5 243.5,-130.5 243.5,-124.5 243.5,-124.5 243.5,-12.5 243.5,-12.5 243.5,-6.5 249.5,-0.5 255.5,-0.5"/>
<text text-anchor="middle" x="309" y="-121.3" font-family="Times,serif" font-size="14.00">Attendance</text>
<polyline fill="none" stroke="black" points="243.5,-113.5 374.5,-113.5 "/>
<text text-anchor="start" x="251.5" y="-98.3" font-family="Times,serif" font-size="14.00">id :INTEGER</text>
<text text-anchor="start" x="251.5" y="-83.3" font-family="Times,serif" font-size="14.00">student_id :integer</text>
<text text-anchor="start" x="251.5" y="-68.3" font-family="Times,serif" font-size="14.00">meeting_id :integer</text>
<text text-anchor="start" x="251.5" y="-53.3" font-family="Times,serif" font-size="14.00">subject_id :integer</text>
<text text-anchor="start" x="251.5" y="-38.3" font-family="Times,serif" font-size="14.00">status :varchar</text>
<text text-anchor="start" x="251.5" y="-23.3" font-family="Times,serif" font-size="14.00">created_at :datetime</text>
<text text-anchor="start" x="251.5" y="-8.3" font-family="Times,serif" font-size="14.00">updated_at :datetime</text>
</g>
<!-- Student&#45;&gt;Attendance -->
<g id="edge6" class="edge"><title>Student&#45;&gt;Attendance</title>
<path fill="none" stroke="#f2387c" d="M264.258,-165.755C267.332,-159.142 270.466,-152.398 273.578,-145.705"/>
<ellipse fill="none" stroke="#f2387c" cx="262.554" cy="-169.42" rx="4.00002" ry="4.00002"/>
<polygon fill="#f2387c" stroke="#f2387c" points="273.583,-145.693 281.879,-138.522 275.691,-141.159 277.798,-136.625 277.798,-136.625 277.798,-136.625 275.691,-141.159 273.718,-134.728 273.583,-145.693 273.583,-145.693"/>
</g>
<!-- Meeting&#45;&gt;Attendance -->
<g id="edge7" class="edge"><title>Meeting&#45;&gt;Attendance</title>
<path fill="none" stroke="#6173c3" d="M354.331,-165.755C351.217,-159.142 348.041,-152.398 344.888,-145.705"/>
<ellipse fill="none" stroke="#6173c3" cx="356.061" cy="-169.428" rx="4.00002" ry="4.00002"/>
<polygon fill="#6173c3" stroke="#6173c3" points="344.873,-145.672 344.683,-134.707 342.743,-141.148 340.612,-136.625 340.612,-136.625 340.612,-136.625 342.743,-141.148 336.541,-138.542 344.873,-145.672 344.873,-145.672"/>
</g>
</g>
</svg>
