<?xml version="1.0" encoding="UTF-8" standalone="no"?>
<!DOCTYPE svg PUBLIC "-//W3C//DTD SVG 1.1//EN"
 "http://www.w3.org/Graphics/SVG/1.1/DTD/svg11.dtd">
<!-- Generated by graphviz version 2.38.0 (20140413.2041)
 -->
<!-- Title: models_diagram Pages: 1 -->
<svg width="467pt" height="302pt"
 viewBox="0.00 0.00 467.34 302.00" xmlns="http://www.w3.org/2000/svg" xmlns:xlink="http://www.w3.org/1999/xlink">
<g id="graph0" class="graph" transform="scale(1 1) rotate(0) translate(4 298)">
<title>models_diagram</title>
<polygon fill="none" stroke="none" points="-4,4 -4,-298 463.343,-298 463.343,4 -4,4"/>
<!-- _diagram_info -->
<g id="node1" class="node"><title>_diagram_info</title>
<text text-anchor="start" x="8" y="-279.6" font-family="Times,serif" font-size="13.00">Models diagram</text>
<text text-anchor="start" x="8" y="-265.6" font-family="Times,serif" font-size="13.00">Date: Mar 03 2017 &#45; 19:52</text>
<text text-anchor="start" x="8" y="-251.6" font-family="Times,serif" font-size="13.00">Migration version: 20170303102803</text>
<text text-anchor="start" x="8" y="-237.6" font-family="Times,serif" font-size="13.00">Generated by RailRoady 1.5.2</text>
<text text-anchor="start" x="8" y="-223.6" font-family="Times,serif" font-size="13.00">http://railroady.prestonlee.com</text>
</g>
<!-- Subject -->
<g id="node2" class="node"><title>Subject</title>
<ellipse fill="none" stroke="black" cx="259" cy="-162" rx="37.0935" ry="18"/>
<text text-anchor="middle" x="259" y="-158.3" font-family="Times,serif" font-size="14.00">Subject</text>
</g>
<!-- Student -->
<g id="node5" class="node"><title>Student</title>
<ellipse fill="none" stroke="black" cx="211" cy="-90" rx="37.8943" ry="18"/>
<text text-anchor="middle" x="211" y="-86.3" font-family="Times,serif" font-size="14.00">Student</text>
</g>
<!-- Subject&#45;&gt;Student -->
<g id="edge1" class="edge"><title>Subject&#45;&gt;Student</title>
<path fill="none" stroke="#77b5d9" d="M243.339,-138.161C238.541,-131.164 233.235,-123.426 228.332,-116.276"/>
<ellipse fill="none" stroke="#77b5d9" cx="245.605" cy="-141.466" rx="4.00002" ry="4.00002"/>
<polygon fill="#77b5d9" stroke="#77b5d9" points="228.061,-115.881 226.117,-105.089 225.233,-111.757 222.406,-107.633 222.406,-107.633 222.406,-107.633 225.233,-111.757 218.694,-110.178 228.061,-115.881 228.061,-115.881"/>
</g>
<!-- Meeting -->
<g id="node7" class="node"><title>Meeting</title>
<ellipse fill="none" stroke="black" cx="307" cy="-90" rx="40.0939" ry="18"/>
<text text-anchor="middle" x="307" y="-86.3" font-family="Times,serif" font-size="14.00">Meeting</text>
</g>
<!-- Subject&#45;&gt;Meeting -->
<g id="edge2" class="edge"><title>Subject&#45;&gt;Meeting</title>
<path fill="none" stroke="#f30a64" d="M274.661,-138.161C279.459,-131.164 284.765,-123.426 289.668,-116.276"/>
<ellipse fill="none" stroke="#f30a64" cx="272.395" cy="-141.466" rx="4.00002" ry="4.00002"/>
<polygon fill="#f30a64" stroke="#f30a64" points="289.939,-115.881 299.306,-110.178 292.767,-111.757 295.594,-107.633 295.594,-107.633 295.594,-107.633 292.767,-111.757 291.883,-105.089 289.939,-115.881 289.939,-115.881"/>
</g>
<!-- User -->
<g id="node3" class="node"><title>User</title>
<ellipse fill="none" stroke="black" cx="259" cy="-255" rx="27.0966" ry="18"/>
<text text-anchor="middle" x="259" y="-251.3" font-family="Times,serif" font-size="14.00">User</text>
</g>
<!-- User&#45;&gt;Subject -->
<g id="edge3" class="edge"><title>User&#45;&gt;Subject</title>
<path fill="none" stroke="#f2a249" d="M259,-228.729C259,-216.725 259,-202.362 259,-190.129"/>
<ellipse fill="none" stroke="#f2a249" cx="259" cy="-232.884" rx="4" ry="4"/>
<polygon fill="#f2a249" stroke="#f2a249" points="259,-190.04 263.5,-180.04 259,-185.04 259,-180.04 259,-180.04 259,-180.04 259,-185.04 254.5,-180.04 259,-190.04 259,-190.04"/>
</g>
<!-- User&#45;&gt;Student -->
<g id="edge5" class="edge"><title>User&#45;&gt;Student</title>
<path fill="none" stroke="#6154e2" d="M240.228,-231.035C230.089,-217.162 218.54,-198.61 213,-180 207.02,-159.911 206.815,-136.128 207.944,-118.204"/>
<polygon fill="#6154e2" stroke="#6154e2" points="240.248,-231.061 242.708,-241.748 243.271,-235.044 246.293,-239.027 246.293,-239.027 246.293,-239.027 243.271,-235.044 249.878,-236.307 240.248,-231.061 240.248,-231.061"/>
<polygon fill="#6154e2" stroke="#6154e2" points="207.951,-118.111 213.24,-108.505 208.353,-113.127 208.754,-108.143 208.754,-108.143 208.754,-108.143 208.353,-113.127 204.269,-107.782 207.951,-118.111 207.951,-118.111"/>
</g>
<!-- User&#45;&gt;Meeting -->
<g id="edge4" class="edge"><title>User&#45;&gt;Meeting</title>
<path fill="none" stroke="#c58e47" d="M277.772,-231.035C287.911,-217.162 299.46,-198.61 305,-180 310.98,-159.911 311.185,-136.128 310.056,-118.204"/>
<polygon fill="#c58e47" stroke="#c58e47" points="277.752,-231.061 268.122,-236.307 274.729,-235.044 271.707,-239.027 271.707,-239.027 271.707,-239.027 274.729,-235.044 275.292,-241.748 277.752,-231.061 277.752,-231.061"/>
<polygon fill="#c58e47" stroke="#c58e47" points="310.049,-118.111 313.731,-107.782 309.647,-113.127 309.246,-108.143 309.246,-108.143 309.246,-108.143 309.647,-113.127 304.76,-108.505 310.049,-118.111 310.049,-118.111"/>
</g>
<!-- ApplicationRecord -->
<g id="node4" class="node"><title>ApplicationRecord</title>
<ellipse fill="none" stroke="black" cx="382" cy="-255" rx="77.1866" ry="18"/>
<text text-anchor="middle" x="382" y="-251.3" font-family="Times,serif" font-size="14.00">ApplicationRecord</text>
</g>
<!-- Attendance -->
<g id="node6" class="node"><title>Attendance</title>
<ellipse fill="none" stroke="black" cx="259" cy="-18" rx="50.8918" ry="18"/>
<text text-anchor="middle" x="259" y="-14.3" font-family="Times,serif" font-size="14.00">Attendance</text>
</g>
<!-- Student&#45;&gt;Attendance -->
<g id="edge6" class="edge"><title>Student&#45;&gt;Attendance</title>
<path fill="none" stroke="#4a802e" d="M226.661,-66.1611C231.459,-59.1636 236.765,-51.4255 241.668,-44.2755"/>
<ellipse fill="none" stroke="#4a802e" cx="224.395" cy="-69.4657" rx="4.00002" ry="4.00002"/>
<polygon fill="#4a802e" stroke="#4a802e" points="241.939,-43.8807 251.306,-38.1783 244.767,-39.7571 247.594,-35.6334 247.594,-35.6334 247.594,-35.6334 244.767,-39.7571 243.883,-33.0885 241.939,-43.8807 241.939,-43.8807"/>
</g>
<!-- Meeting&#45;&gt;Attendance -->
<g id="edge7" class="edge"><title>Meeting&#45;&gt;Attendance</title>
<path fill="none" stroke="#7fd965" d="M290.975,-65.6295C286.294,-58.8031 281.156,-51.3107 276.394,-44.3669"/>
<ellipse fill="none" stroke="#7fd965" cx="293.363" cy="-69.1121" rx="4.00002" ry="4.00002"/>
<polygon fill="#7fd965" stroke="#7fd965" points="276.282,-44.2035 274.338,-33.4113 273.455,-40.0799 270.627,-35.9562 270.627,-35.9562 270.627,-35.9562 273.455,-40.0799 266.916,-38.5011 276.282,-44.2035 276.282,-44.2035"/>
</g>
</g>
</svg>
